<svg id="Capa_1" data-name="Capa 1" xmlns="http://www.w3.org/2000/svg" viewBox="0 0 13.24 18.91"><defs><style>.cls-1{fill:#9a94bc;}.cls-2{fill:#effcff;}</style></defs><title>arrow-down</title><g id="back"><path id="Path_1" data-name="Path 1" class="cls-1" d="M10.37,2.9v14L6.53,13.1a.86.86,0,0,0-1.21,1.22l5.31,5.31a.86.86,0,0,0,1.21,0l5.31-5.31a.87.87,0,0,0-1.22-1.22L12.1,16.94V2.9a.87.87,0,1,0-1.73-.13Z" transform="translate(-4.11 -0.97)"/></g><g id="back-2" data-name="back"><path id="Path_1-2" data-name="Path 1" class="cls-2" d="M9.37,1.9v14L5.53,12.1a.86.86,0,0,0-1.21,1.22l5.31,5.31a.86.86,0,0,0,1.21,0l5.31-5.31a.87.87,0,0,0-1.22-1.22L11.1,15.94V1.9a.87.87,0,1,0-1.73-.13Z" transform="translate(-4.11 -0.97)"/></g></svg>